<svg width="15" height="10" fill="none" xmlns="http://www.w3.org/2000/svg">
  <g clip-path="url(#a)" fill-rule="evenodd" clip-rule="evenodd">
    <path d="M.82337 0H14.1739c.4538 0 .8234.354167.8234.789062V9.20833c0 .43229-.3696.78646-.8207.78907H.820652C.369565 10 0 9.64323 0 9.21094V.789062C0 .354167.369565 0 .82337 0Z" fill="#000"/>
    <path d="M0 3.33333h15v5.8776c0 .4349-.3696.78907-.8234.78907H.82337C.369565 10 0 9.64583 0 9.21093v-5.8776Z" fill="#D00"/>
    <path d="M0 6.66667h15v2.54427c0 .43229-.3696.78646-.8207.78906H.82337c-.218151-.00068-.427162-.08404-.581419-.23186C.0876941 9.62031.00071643 9.42 0 9.21094V6.66667Z" fill="#FFCE00"/>
  </g>
  <defs>
    <clipPath id="a">
      <path fill="#fff" d="M0 0h15v10H0z"/>
    </clipPath>
  </defs>
</svg>
