<?xml version="1.0" standalone="no"?>
<!DOCTYPE svg PUBLIC "-//W3C//DTD SVG 20010904//EN"
 "http://www.w3.org/TR/2001/REC-SVG-20010904/DTD/svg10.dtd">
<svg version="1.0" xmlns="http://www.w3.org/2000/svg"
 width="512.000000pt" height="512.000000pt" viewBox="0 0 512.000000 512.000000"
 preserveAspectRatio="xMidYMid meet">
<metadata>
Created by potrace 1.14, written by Peter Selinger 2001-2017
</metadata>
<g transform="translate(0.000000,512.000000) scale(0.100000,-0.100000)"
fill="#000000" stroke="none">
<path d="M2330 4550 c-124 -16 -159 -22 -245 -41 -437 -97 -807 -333 -1035
-662 -22 -31 -40 -60 -40 -62 0 -3 -11 -22 -24 -43 -49 -78 -115 -269 -132
-387 -6 -36 -13 -152 -13 -220 l-1 -50 -69 -33 c-141 -68 -286 -220 -379 -399
-40 -78 -106 -257 -116 -318 -3 -16 -8 -46 -11 -65 -19 -104 -23 -160 -20
-305 2 -88 6 -173 10 -190 3 -16 13 -64 21 -105 29 -139 100 -311 179 -435 49
-77 195 -220 267 -263 92 -54 190 -84 300 -90 l98 -5 1 1189 c1 654 2 1200 4
1214 34 326 271 630 637 818 88 45 305 124 373 136 17 2 71 13 120 22 126 25
480 25 615 0 478 -86 853 -329 1029 -666 44 -84 85 -215 95 -300 3 -30 6 -585
6 -1234 l0 -1179 98 6 c177 10 298 66 438 202 157 153 261 359 316 623 18 88
22 139 22 292 0 103 -5 209 -12 240 -6 30 -14 67 -16 82 -11 66 -62 211 -106
303 -99 207 -253 369 -417 440 -31 13 -43 25 -43 39 -2 256 -38 423 -131 608
-173 343 -523 619 -959 757 -90 28 -224 58 -295 66 -33 4 -64 10 -69 13 -14 8
-433 10 -496 2z m-1370 -2551 l0 -951 -27 6 c-121 28 -270 149 -358 290 -78
125 -144 313 -162 461 -10 77 -10 303 -1 380 35 290 184 570 369 692 39 26
145 72 167 73 9 0 12 -197 12 -951z m3325 906 c126 -61 250 -202 326 -372 35
-79 76 -212 85 -281 3 -26 8 -51 11 -55 10 -17 11 -313 2 -382 -46 -330 -215
-619 -421 -719 -40 -19 -85 -38 -100 -42 l-28 -6 0 952 0 952 28 -6 c15 -4 59
-22 97 -41z"/>
<path d="M2474 3430 c-57 -23 -103 -114 -119 -235 -16 -127 -22 -155 -33 -155
-4 0 -18 33 -30 73 -29 95 -52 130 -95 150 -48 23 -95 21 -139 -6 -44 -26 -76
-68 -125 -159 -39 -75 -57 -95 -191 -217 -177 -162 -218 -244 -247 -501 -10
-90 -17 -135 -19 -138 -2 -1 -11 0 -20 4 -14 6 -16 44 -16 403 l0 398 -23 21
c-26 25 -87 52 -117 52 -20 0 -20 -1 -20 -1120 0 -1119 0 -1120 20 -1120 30 0
91 27 117 52 13 12 23 33 23 46 l0 25 22 -29 c140 -180 238 -239 418 -251 85
-5 85 -5 163 36 43 23 88 41 100 41 42 0 100 -44 147 -110 26 -36 68 -80 95
-98 42 -28 57 -33 100 -31 27 1 62 7 77 12 33 11 86 69 100 109 5 15 13 28 16
28 4 0 20 -16 35 -35 45 -57 66 -48 179 83 50 57 69 55 113 -14 45 -70 92 -93
210 -101 72 -5 89 -3 127 16 23 12 54 36 67 52 31 40 70 136 77 191 9 67 41
124 102 179 95 84 92 85 92 -30 0 -98 0 -99 30 -125 28 -23 86 -46 118 -46 9
0 12 231 12 1121 l0 1121 -33 -5 c-39 -5 -86 -28 -109 -54 -16 -17 -18 -50
-20 -292 l-3 -273 -35 48 c-50 71 -123 141 -166 159 -20 8 -65 15 -100 15 -44
0 -67 5 -78 16 -9 8 -16 16 -16 17 0 1 -5 29 -10 62 -6 33 -13 89 -16 125 -4
36 -15 97 -26 135 -10 39 -25 95 -32 125 -23 101 -58 147 -118 156 -29 5 -41
1 -70 -25 -40 -35 -58 -73 -98 -211 -33 -114 -46 -146 -58 -154 -36 -22 -82
61 -142 255 -23 74 -48 144 -56 156 -31 48 -124 76 -180 53z m61 -291 c2 -57
6 -189 10 -294 4 -104 8 -237 10 -295 4 -97 12 -321 20 -559 2 -53 4 -107 5
-121 1 -28 66 139 75 193 3 18 8 44 11 59 3 15 7 39 9 55 2 15 15 93 29 173
13 80 27 161 30 180 3 19 10 58 15 85 12 63 23 136 24 153 0 6 4 12 7 12 4 0
10 -21 13 -47 3 -27 9 -64 12 -83 4 -19 20 -111 36 -205 16 -93 31 -179 33
-190 2 -11 7 -40 11 -65 4 -25 9 -52 10 -60 13 -75 26 -159 28 -177 0 -13 4
-19 8 -15 16 18 69 256 74 337 3 50 8 106 10 125 2 19 7 76 10 125 3 50 8 113
11 140 2 28 6 79 9 115 2 36 7 108 11 160 4 52 7 105 8 118 0 42 15 7 21 -53
4 -33 8 -71 10 -85 2 -14 6 -50 10 -80 3 -30 8 -71 11 -90 4 -33 8 -64 19
-150 2 -19 7 -55 10 -80 4 -25 8 -58 9 -75 6 -56 17 -147 31 -245 2 -14 7 -50
10 -80 13 -109 39 -206 49 -180 3 8 22 76 42 150 19 74 51 194 70 265 19 72
37 142 40 158 9 40 19 33 20 -16 2 -59 14 -279 20 -356 4 -47 15 -83 43 -139
37 -73 39 -75 45 -47 3 17 8 55 11 86 3 31 7 64 9 75 2 10 7 48 12 84 4 36 9
68 10 73 1 4 2 28 3 55 4 80 18 19 25 -103 6 -117 16 -261 21 -310 2 -16 4
-39 5 -50 0 -13 11 -2 30 35 l29 55 0 -225 0 -225 -24 45 c-13 25 -25 41 -25
35 -1 -5 -3 -17 -5 -26 -1 -8 -6 -40 -9 -70 -4 -30 -9 -70 -11 -89 -3 -19 -6
-50 -7 -67 -1 -18 -5 -33 -8 -33 -3 0 -14 30 -24 68 -10 37 -31 113 -47 168
-16 56 -29 110 -29 120 -1 46 -20 -20 -49 -171 -17 -88 -33 -170 -36 -182 -10
-46 -15 -71 -47 -230 -18 -89 -34 -160 -37 -157 -3 2 -6 30 -7 62 -2 75 -13
296 -19 402 -3 47 -7 130 -10 184 -3 55 -6 100 -8 102 -1 2 -26 -43 -55 -99
l-52 -102 -5 -180 c-9 -286 -15 -459 -18 -462 -3 -2 -38 160 -63 287 -5 25
-33 155 -39 180 -2 8 -16 74 -31 145 -52 249 -50 243 -58 215 -3 -14 -24 -108
-46 -210 -21 -102 -46 -214 -54 -250 -8 -36 -18 -78 -21 -95 -18 -94 -43 -198
-45 -185 -1 8 -3 24 -5 35 -2 11 -7 58 -10 105 -3 47 -8 103 -10 125 -5 45
-12 115 -20 226 -3 42 -8 87 -10 100 -3 13 -6 49 -6 80 -1 32 -4 62 -8 67 -5
8 -81 -305 -127 -518 -3 -14 -6 -29 -8 -35 -3 -10 -19 -86 -21 -95 -6 -42 -60
-250 -65 -250 -3 0 -6 17 -6 37 0 39 -12 239 -19 328 -2 28 -6 95 -9 150 -17
282 -24 387 -30 392 -1 2 -17 -50 -34 -114 -33 -122 -35 -149 -41 -587 -1 -27
-3 -47 -6 -45 -4 5 -73 260 -81 302 -1 10 -8 32 -14 50 -17 53 -120 459 -120
475 0 8 -2 13 -4 11 -5 -5 -11 -38 -20 -104 -3 -22 -8 -59 -11 -83 -3 -24 -8
-58 -9 -75 -4 -40 -16 -134 -21 -167 -4 -27 -16 -120 -20 -160 -2 -14 -6 -54
-11 -90 -4 -36 -7 -71 -7 -78 0 -25 -15 3 -20 38 -5 33 -26 153 -77 429 -20
109 -23 116 -58 147 l-37 32 -5 -332 c-3 -182 -6 -319 -8 -304 -1 15 -8 57
-16 95 -8 37 -17 82 -20 98 -3 17 -7 41 -10 55 -6 30 -26 145 -32 181 -3 15
-20 73 -39 130 l-33 104 -1 -344 c-1 -189 -3 -342 -5 -340 -2 2 -7 22 -10 44
-3 22 -8 51 -11 65 -6 30 -13 66 -20 100 -3 14 -7 36 -10 50 -3 14 -8 41 -12
60 -4 19 -8 37 -8 40 -1 3 -5 28 -10 55 -5 28 -10 53 -11 58 -1 4 -2 14 -3 22
-2 29 -17 15 -17 -17 -1 -34 -14 -214 -19 -258 -2 -14 -4 -36 -5 -50 -1 -14
-23 39 -51 120 l-49 145 2 220 3 220 37 -125 37 -125 1 275 1 275 36 -107 c20
-59 39 -105 44 -103 4 3 7 13 7 23 0 9 2 37 5 62 4 25 9 65 12 90 9 72 14 112
21 160 3 25 7 61 9 80 2 19 7 60 11 90 4 30 7 61 7 67 0 15 10 8 13 -10 1 -7
5 -61 9 -122 4 -60 8 -112 10 -115 1 -3 6 -48 9 -100 4 -52 9 -108 11 -125 2
-16 7 -68 10 -115 3 -47 8 -94 10 -105 2 -11 4 -29 5 -40 0 -11 23 32 50 96
46 110 49 123 55 230 3 63 8 146 10 184 2 39 7 129 10 200 7 161 13 237 20
243 3 3 5 -24 6 -59 0 -35 2 -72 4 -82 3 -15 12 -138 20 -272 1 -22 5 -76 9
-120 4 -44 9 -109 12 -144 4 -48 15 -83 44 -140 22 -42 40 -69 40 -61 1 8 3
26 5 40 1 14 6 74 10 134 4 60 9 123 11 139 3 27 9 105 19 267 3 36 7 88 9
115 3 28 7 86 11 130 3 44 8 103 10 130 6 62 18 224 19 247 1 36 14 1 20 -53
4 -31 9 -67 11 -79 2 -12 9 -54 14 -93 6 -40 20 -133 31 -207 11 -74 23 -153
25 -175 3 -22 7 -50 9 -62 3 -12 12 -73 21 -135 19 -134 24 -165 30 -198 2
-14 7 -47 10 -75 8 -63 15 -113 21 -145 3 -14 8 -52 11 -84 7 -69 17 -55 27
39 15 131 31 266 41 345 7 51 13 107 20 170 3 30 8 66 10 80 2 14 7 54 11 90
4 36 8 76 10 90 1 14 6 52 10 85 3 33 8 67 9 75 2 8 6 44 10 80 4 36 9 79 11
95 2 17 6 55 9 85 4 30 8 66 11 80 2 14 7 60 10 103 4 42 9 76 11 73 2 -2 6
-50 8 -107z"/>
</g>
</svg>
