<svg width="15" height="10" fill="none" xmlns="http://www.w3.org/2000/svg">
  <path fill-rule="evenodd" clip-rule="evenodd" d="M0 0h15v.769531H0V0Zm0 1.53906h15v.76953H0v-.76953Zm0 1.53711h15v.77149H0v-.77149Zm0 1.53906h15v.76954H0v-.76954ZM0 6.1543h15v.76953H0V6.1543Zm0 1.53711h15v.76953H0v-.76953Zm0 1.53906h15V10H0v-.76953Z" fill="#BD3D44"/>
  <path fill-rule="evenodd" clip-rule="evenodd" d="M0 .769531h15v.769529H0V.769531ZM0 2.30859h15v.76758H0v-.76758ZM0 3.8457h15v.76953H0V3.8457Zm0 1.53907h15v.76757H0v-.76757Zm0 1.53906h15v.76758H0v-.76758Zm0 1.53711h15v.76953H0v-.76953Z" fill="#fff"/>
  <path fill-rule="evenodd" clip-rule="evenodd" d="M0 0h11.3994v5.38477H0V0Z" fill="#192F5D"/>
  <path fill-rule="evenodd" clip-rule="evenodd" d="m.946289.230469.117191.214843h.32226l-.2666.13086.10254.208984L.946289.654297.691406.785156.796875.576172l-.27832-.13086h.345703L.946289.230469Zm1.904301 0 .10253.214843h.33399l-.27539.13086.11719.208984-.27832-.130859-.27832.130859.11718-.208984-.27832-.13086h.33399l.10547-.214843Zm1.90429 0 .10254.214843h.33399l-.27539.13086.11718.208984-.27832-.130859-.27832.130859.11719-.208984-.27832-.13086h.33398l.10547-.214843Zm1.89258 0 .11426.214843h.32226l-.26367.13086.10254.208984-.27539-.130859-.2666.130859.10254-.208984-.27539-.13086h.3457l.09375-.214843Zm1.9043 0 .10254.214843h.33398l-.27539.13086.11426.208984-.29004-.130859-.26367.130859.10254-.208984-.2754-.13086h.33399l.11719-.214843Zm1.90434 0 .1025.214843h.334l-.2783.13086.1171.208984-.2783-.130859-.2754.130859.1172-.208984-.2783-.13086h.334l.1055-.214843ZM1.90137.769531l.10547.214844h.33691l-.27832.130855.11719.20704-.27832-.13086-.27832.13086.11718-.20704-.27832-.130855h.33399l.10254-.214844Zm1.8955 0 .11719.214844h.32227l-.2666.130855.10254.20704-.2754-.13086-.26367.13086.10254-.20704-.27832-.130855h.3457l.09375-.214844Zm1.9043 0 .10254.214844h.33398l-.27539.130855.11719.20704-.27832-.13086-.27832.13086.11719-.20704-.27832-.130855h.33398l.10547-.214844Zm1.9043 0 .10254.214844h.33398l-.27539.130855.11426.20704-.27832-.13086-.27539.13086.11719-.20704-.27832-.130855H7.5l.10547-.214844Zm1.88965 0 .11718.214844h.31055l-.26367.130855.10254.20704-.27832-.13086-.26367.13086.10253-.20704-.27539-.130855h.34571l.10254-.214844ZM.958008 1.30859l.090822.21485h.34863l-.27832.13086.10254.20703-.275391-.13086-.254883.13086.105469-.20703-.27832-.13086h.345703l.09375-.21485Zm1.892582 0 .10253.21485h.33399l-.26367.13086.10254.20703-.27539-.13086-.26368.13086.10254-.20703-.27832-.13086h.33399l.10547-.21485Zm1.90429 0 .10254.21485h.33399l-.27539.13086.11718.20703-.27832-.13086-.27832.13086.11719-.20703-.27832-.13086h.33398l.10547-.21485Zm1.89258 0 .11426.21485h.32226l-.26367.13086.10254.20703-.27539-.13086-.2666.13086.10254-.20703-.27246-.13086h.3457l.09082-.21485Zm1.9043 0 .10254.21485h.33398l-.26367.13086.10254.20703-.27832-.13086-.26368.13086.10254-.20703-.27246-.13086h.33399l.10254-.21485Zm1.90434 0 .1025.21485h.334l-.2783.13086.1171.20703-.2783-.13086-.2754.13086.1172-.20703-.2783-.13086h.334l.1055-.21485Zm-8.55473.53711.10547.21485h.33691l-.27832.13086.11719.20898-.27832-.13086-.27832.13086.11718-.20898-.27832-.12891h.33399l.10254-.2168Zm1.8955 0 .11719.21485h.32227l-.2666.13086.10254.21093-.2754-.13086-.26367.13086.10254-.20898-.27832-.12891h.3457l.09375-.21875Zm1.9043 0 .10254.21485h.33398l-.26367.13086.10254.21093-.27539-.13086-.2666.13086.10254-.20898-.27539-.12891h.33398l.10547-.21875Zm1.9043 0 .10254.21485h.33398l-.27539.13086.11426.21093-.27832-.13086-.27539.13086.11719-.20898-.27832-.12891H7.5l.10547-.21875Zm1.88965 0 .11718.21485h.31055l-.26367.13086.10254.20898-.27832-.13086-.26367.13086.10253-.20898-.27539-.12891h.34571l.10254-.2168Zm-8.537112.53907.090822.21484h.34863l-.27832.13086.10254.20898-.275391-.13086-.254883.13086.105469-.20898-.27832-.13086h.345703l.09375-.21484Zm1.892582 0 .10253.21484h.33399l-.26367.13086.10254.20898-.27539-.13086-.26368.13086.10254-.20898-.27832-.13086h.33399l.10547-.21484Zm1.90429 0 .10254.21484h.33399l-.27539.13086.11718.20898-.27832-.13086-.27832.13086.11719-.20898-.27832-.13086h.33398l.10547-.21484Zm1.89258 0 .11426.21484h.32226l-.26367.13086.10254.20898-.27539-.13086-.2666.13086.10254-.20898-.27539-.13086h.3457l.09375-.21484Zm1.9043 0 .10254.21484h.33398l-.26367.13086.10254.20898-.27832-.13086-.26368.13086.10254-.20898-.27539-.13086h.33399l.10547-.21484Zm1.90434 0 .1025.21484h.334l-.2783.13086.1171.20898-.2783-.13086-.2754.13086.1172-.20898-.2783-.13086h.334l.1055-.21484Zm-8.55473.53906.10547.21484h.33691l-.27832.13086.11719.20703-.27832-.13086-.27832.13086.11718-.20703-.27832-.13086h.33399l.10254-.21484Zm1.8955 0 .11719.21484h.32227l-.2666.13086.10254.20703-.2754-.13086-.26367.13086.10254-.20703-.27832-.13086h.3457l.09375-.21484Zm1.9043 0 .10254.21484h.33398l-.26367.13086.10254.20703-.27539-.13086-.2666.13086.10254-.20703-.27539-.13086h.33398l.10547-.21484Zm1.9043 0 .10254.21484h.33398l-.27539.13086.11426.20703-.27832-.13086-.27539.13086.11719-.20703-.27832-.13086H7.5l.10547-.21484Zm1.88965 0 .11718.21484h.31055l-.26367.13086.10254.20703-.27832-.13086-.26367.13086.10253-.20703-.27539-.13086h.34571l.10254-.21484Zm-8.537112.53711.090822.21484h.34863l-.27832.13281.10254.20704-.275391-.13086-.254883.13086.105469-.20704-.27832-.13086h.345703l.09375-.21679Zm1.892582 0 .10253.21484h.33399l-.26367.13281.10254.20704-.27539-.13086-.26368.13086.10254-.20704-.27832-.13086h.33399l.10547-.21679Zm1.90429 0 .10254.21484h.33399l-.27539.13281.11718.20704-.27832-.13086-.27832.13086.11719-.20704-.27832-.13086h.33398l.10547-.21679Zm1.89258 0 .11426.21484h.32226l-.26367.13281.10254.20704-.27539-.13086-.2666.13086.10254-.20704-.27539-.13086h.3457l.09375-.21679Zm1.9043 0 .10254.21484h.33398l-.26367.13281.10254.20704-.27832-.13086-.26368.13086.10254-.20704-.27539-.13086h.33399l.10547-.21679Zm1.90434 0 .1025.21484h.334l-.2783.13281.1171.20704-.2783-.13086-.2754.13086.1172-.20704-.2783-.13086h.334l.1055-.21679ZM1.90137 4l.10547.21484h.33691l-.27832.13086.11719.20899-.27832-.13086-.27832.13086.11718-.20899-.27832-.13086h.33399L1.90137 4Zm1.8955 0 .11719.21484h.32227l-.2666.13086.10254.20899-.2754-.13086-.26367.13086.10254-.20899-.27832-.13086h.3457L3.79687 4Zm1.9043 0 .10254.21484h.33398l-.26367.13086.10254.20899-.27539-.13086-.2666.13086.10254-.20899-.27539-.13086h.33398L5.70117 4Zm1.9043 0 .10254.21484h.33398l-.27539.13086.11426.20899-.27832-.13086-.27539.13086.11719-.20899-.27832-.13086H7.5L7.60547 4Zm1.88965 0 .11718.21484h.31055l-.26367.13086.10254.20899-.27832-.13086-.26367.13086.10253-.20899-.27539-.13086h.34571L9.49512 4Zm-8.537112.53906.090822.21485h.34863l-.27832.13086.10254.20703-.275391-.13086-.254883.13086.105469-.20703-.27832-.13086h.345703l.09375-.21485Zm1.892582 0 .10253.21485h.33399l-.26367.13086.10254.20703-.27539-.13086-.26368.13086.10254-.20703-.27832-.13086h.33399l.10547-.21485Zm1.90429 0 .10254.21485h.33399l-.27539.13086.11718.20703-.27832-.13086-.27832.13086.11719-.20703-.27832-.13086h.33398l.10547-.21485Zm1.89258 0 .11426.21485h.32226l-.26367.13086.10254.20703-.27539-.13086-.2666.13086.10254-.20703-.27539-.13086h.3457l.09375-.21485Zm1.9043 0 .10254.21485h.33398l-.26367.13086.10254.20703-.27832-.13086-.26368.13086.10254-.20703-.27539-.13086h.33399l.10547-.21485Zm1.90434 0 .1025.21485h.334l-.2783.13086.1171.20703-.2783-.13086-.2754.13086.1172-.20703-.2783-.13086h.334l.1055-.21485Z" fill="#fff"/>
</svg>